{
	"asset":{
		"generator":"Khronos glTF Blender I/O v4.0.44",
		"version":"2.0"
	},
	"extensionsUsed":[
		"KHR_materials_specular",
		"KHR_materials_ior"
	],
	"scene":0,
	"scenes":[
		{
			"name":"Scene",
			"nodes":[
				0
			]
		}
	],
	"nodes":[
		{
			"extras":{
				"MapChannel:1":"UVChannel_1",
				"MaxHandle":3
			},
			"mesh":0,
			"name":"GLman_level2"
		}
	],
	"materials":[
		{
			"doubleSided":true,
			"extensions":{
				"KHR_materials_specular":{
					"specularFactor":0
				},
				"KHR_materials_ior":{
					"ior":1.4500000476837158
				}
			},
			"name":"GLman",
			"pbrMetallicRoughness":{}
		}
	],
	"meshes":[
		{
			"name":"Mesh",
			"primitives":[
				{
					"attributes":{
						"POSITION":0,
						"NORMAL":1,
						"TEXCOORD_0":2
					},
					"indices":3,
					"material":0
				}
			]
		}
	],
	"accessors":[
		{
			"bufferView":0,
			"componentType":5126,
			"count":96458,
			"max":[
				0.03360142186284065,
				0.18914534151554108,
				0.029660535976290703
			],
			"min":[
				-0.03323216363787651,
				-5.909241735935211e-07,
				-0.033517025411129
			],
			"type":"VEC3"
		},
		{
			"bufferView":1,
			"componentType":5126,
			"count":96458,
			"type":"VEC3"
		},
		{
			"bufferView":2,
			"componentType":5126,
			"count":96458,
			"type":"VEC2"
		},
		{
			"bufferView":3,
			"componentType":5125,
			"count":520896,
			"type":"SCALAR"
		}
	],
	"bufferViews":[
		{
			"buffer":0,
			"byteLength":1157496,
			"byteOffset":0,
			"target":34962
		},
		{
			"buffer":0,
			"byteLength":1157496,
			"byteOffset":1157496,
			"target":34962
		},
		{
			"buffer":0,
			"byteLength":771664,
			"byteOffset":2314992,
			"target":34962
		},
		{
			"buffer":0,
			"byteLength":2083584,
			"byteOffset":3086656,
			"target":34963
		}
	],
	"buffers":[
		{
			"byteLength":5170240,
			"uri":"GLman_3_3_cycles.bin"
		}
	]
}
